<mxfile host="app.diagrams.net" agent="Mozilla/5.0 (Windows NT 10.0; Win64; x64; rv:134.0) Gecko/20100101 Firefox/134.0" version="26.0.10">
  <diagram name="Page-1" id="01GooG16zKZ9NEghx0lm">
    <mxGraphModel dx="2835" dy="2183" grid="1" gridSize="10" guides="1" tooltips="1" connect="1" arrows="1" fold="1" page="1" pageScale="1" pageWidth="850" pageHeight="1100" math="0" shadow="0">
      <root>
        <mxCell id="0" />
        <mxCell id="1" parent="0" />
        <mxCell id="aTWuju5GETZAm3QBWsv6-1" value="" style="ellipse;whiteSpace=wrap;html=1;direction=west;fillColor=#ffe6cc;strokeColor=#d79b00;strokeWidth=2;" parent="1" vertex="1">
          <mxGeometry x="-280" y="10" width="670" height="460" as="geometry" />
        </mxCell>
        <mxCell id="aTWuju5GETZAm3QBWsv6-2" value="" style="ellipse;whiteSpace=wrap;html=1;opacity=50;fillColor=#f8cecc;strokeColor=#b85450;strokeWidth=2;" parent="1" vertex="1">
          <mxGeometry x="-320" y="350" width="370" height="160" as="geometry" />
        </mxCell>
        <mxCell id="aTWuju5GETZAm3QBWsv6-3" value="" style="ellipse;whiteSpace=wrap;html=1;direction=south;fillColor=#dae8fc;strokeColor=#6c8ebf;opacity=60;strokeWidth=2;" parent="1" vertex="1">
          <mxGeometry x="10" y="20" width="580" height="440" as="geometry" />
        </mxCell>
        <mxCell id="aTWuju5GETZAm3QBWsv6-4" value="" style="ellipse;whiteSpace=wrap;html=1;fillColor=#d5e8d4;strokeColor=#82b366;opacity=60;strokeWidth=2;" parent="1" vertex="1">
          <mxGeometry x="-470" width="400" height="240" as="geometry" />
        </mxCell>
        <mxCell id="aTWuju5GETZAm3QBWsv6-5" value="" style="ellipse;whiteSpace=wrap;html=1;fillColor=#fff2cc;strokeColor=#d6b656;opacity=50;strokeWidth=2;" parent="1" vertex="1">
          <mxGeometry x="-510" y="177.5" width="340" height="170" as="geometry" />
        </mxCell>
        <mxCell id="aTWuju5GETZAm3QBWsv6-6" value="" style="ellipse;whiteSpace=wrap;html=1;aspect=fixed;fillColor=#f5f5f5;dashed=1;dashPattern=8 8;fontColor=#333333;strokeColor=#666666;opacity=80;strokeWidth=2;" parent="1" vertex="1">
          <mxGeometry x="10" y="45" width="385" height="385" as="geometry" />
        </mxCell>
        <mxCell id="aTWuju5GETZAm3QBWsv6-7" value="" style="endArrow=classic;html=1;rounded=0;entryX=1;entryY=0.5;entryDx=0;entryDy=0;exitX=0;exitY=0.5;exitDx=0;exitDy=0;curved=1;" parent="1" source="aTWuju5GETZAm3QBWsv6-17" target="aTWuju5GETZAm3QBWsv6-38" edge="1">
          <mxGeometry width="50" height="50" relative="1" as="geometry">
            <mxPoint x="205" y="350" as="sourcePoint" />
            <mxPoint x="293" y="460" as="targetPoint" />
            <Array as="points">
              <mxPoint x="-70" y="310" />
            </Array>
          </mxGeometry>
        </mxCell>
        <mxCell id="aTWuju5GETZAm3QBWsv6-8" value="6" style="edgeLabel;html=1;align=center;verticalAlign=middle;resizable=0;points=[];labelBackgroundColor=none;" parent="aTWuju5GETZAm3QBWsv6-7" vertex="1" connectable="0">
          <mxGeometry x="-0.0429" y="-4" relative="1" as="geometry">
            <mxPoint x="110" y="-33" as="offset" />
          </mxGeometry>
        </mxCell>
        <mxCell id="aTWuju5GETZAm3QBWsv6-9" value="&lt;div&gt;&lt;font style=&quot;font-size: 28px;&quot;&gt;&lt;b&gt;&lt;font&gt;Modified Properties&lt;/font&gt;&lt;/b&gt;&lt;/font&gt;&lt;/div&gt;&lt;div&gt;&lt;font style=&quot;font-size: 24px;&quot;&gt;&lt;br&gt;&lt;/font&gt;&lt;/div&gt;&lt;div&gt;&lt;font style=&quot;font-size: 24px;&quot;&gt;1. Existence and representation&lt;/font&gt;&lt;/div&gt;&lt;div&gt;&lt;font style=&quot;font-size: 24px;&quot;&gt;2. Ownership and control&lt;/font&gt;&lt;/div&gt;&lt;div&gt;&lt;font style=&quot;font-size: 24px;&quot;&gt;3. Access and availability&lt;/font&gt;&lt;/div&gt;&lt;div&gt;&lt;font style=&quot;font-size: 24px;&quot;&gt;4. Portability&lt;/font&gt;&lt;/div&gt;&lt;div&gt;&lt;font style=&quot;font-size: 24px;&quot;&gt;5. Interoperability&lt;/font&gt;&lt;/div&gt;&lt;div&gt;&lt;font style=&quot;font-size: 24px;&quot;&gt;6. Consent&lt;/font&gt;&lt;/div&gt;&lt;div&gt;&lt;font style=&quot;font-size: 24px;&quot;&gt;7. Security and protection&lt;/font&gt;&lt;/div&gt;&lt;div&gt;&lt;font style=&quot;font-size: 24px;&quot;&gt;8. Privacy and minimal disclosure&lt;/font&gt;&lt;/div&gt;&lt;div&gt;&lt;font style=&quot;font-size: 24px;&quot;&gt;9. Usability and consistency&lt;/font&gt;&lt;/div&gt;&lt;div&gt;&lt;font style=&quot;font-size: 24px;&quot;&gt;10. Decentralization and Autonomy&lt;/font&gt;&lt;/div&gt;&lt;div&gt;&lt;font style=&quot;font-size: 24px;&quot;&gt;11. Verifiability and Authenticity&lt;/font&gt;&lt;/div&gt;" style="rounded=1;whiteSpace=wrap;html=1;align=left;fillColor=none;strokeColor=none;strokeWidth=2;" parent="1" vertex="1">
          <mxGeometry x="650" y="27.5" width="410" height="395" as="geometry" />
        </mxCell>
        <mxCell id="aTWuju5GETZAm3QBWsv6-10" value="Existence &amp;nbsp;" style="text;whiteSpace=wrap;html=1;" parent="1" vertex="1">
          <mxGeometry x="200" y="95" width="90" height="40" as="geometry" />
        </mxCell>
        <mxCell id="aTWuju5GETZAm3QBWsv6-11" value="Control &amp;nbsp;" style="text;whiteSpace=wrap;html=1;" parent="1" vertex="1">
          <mxGeometry x="105" y="95" width="50" height="30" as="geometry" />
        </mxCell>
        <mxCell id="aTWuju5GETZAm3QBWsv6-12" value="Access &amp;nbsp;" style="text;whiteSpace=wrap;html=1;" parent="1" vertex="1">
          <mxGeometry x="70" y="175" width="50" height="25" as="geometry" />
        </mxCell>
        <mxCell id="aTWuju5GETZAm3QBWsv6-15" value="Portability &amp;nbsp;" style="text;whiteSpace=wrap;html=1;" parent="1" vertex="1">
          <mxGeometry x="275" y="297.5" width="60" height="20" as="geometry" />
        </mxCell>
        <mxCell id="aTWuju5GETZAm3QBWsv6-16" value="Interoperability &amp;nbsp;" style="text;whiteSpace=wrap;html=1;" parent="1" vertex="1">
          <mxGeometry x="155" y="350" width="120" height="20" as="geometry" />
        </mxCell>
        <mxCell id="aTWuju5GETZAm3QBWsv6-17" value="Consent &amp;nbsp;" style="text;whiteSpace=wrap;html=1;" parent="1" vertex="1">
          <mxGeometry x="90" y="250" width="80" height="40" as="geometry" />
        </mxCell>
        <mxCell id="aTWuju5GETZAm3QBWsv6-18" value="Protection &amp;nbsp;" style="text;whiteSpace=wrap;html=1;" parent="1" vertex="1">
          <mxGeometry x="170" y="230" width="70" height="30" as="geometry" />
        </mxCell>
        <mxCell id="aTWuju5GETZAm3QBWsv6-19" value="&lt;div align=&quot;left&quot;&gt;Minimization&lt;/div&gt;" style="text;whiteSpace=wrap;html=1;" parent="1" vertex="1">
          <mxGeometry x="80" y="140" width="100" height="40" as="geometry" />
        </mxCell>
        <mxCell id="aTWuju5GETZAm3QBWsv6-20" value="Representation" style="text;whiteSpace=wrap;html=1;" parent="1" vertex="1">
          <mxGeometry x="-20" y="40" width="90" height="30" as="geometry" />
        </mxCell>
        <mxCell id="aTWuju5GETZAm3QBWsv6-21" value="" style="endArrow=classic;html=1;rounded=0;exitX=0;exitY=0.25;exitDx=0;exitDy=0;entryX=1;entryY=0.5;entryDx=0;entryDy=0;curved=1;" parent="1" source="aTWuju5GETZAm3QBWsv6-10" target="aTWuju5GETZAm3QBWsv6-20" edge="1">
          <mxGeometry width="50" height="50" relative="1" as="geometry">
            <mxPoint x="370" y="200" as="sourcePoint" />
            <mxPoint x="420" y="150" as="targetPoint" />
            <Array as="points">
              <mxPoint x="170" y="60" />
              <mxPoint x="130" y="50" />
            </Array>
          </mxGeometry>
        </mxCell>
        <mxCell id="aTWuju5GETZAm3QBWsv6-22" value="1" style="edgeLabel;html=1;align=center;verticalAlign=middle;resizable=0;points=[];labelBackgroundColor=none;" parent="aTWuju5GETZAm3QBWsv6-21" vertex="1" connectable="0">
          <mxGeometry x="-0.0429" y="-4" relative="1" as="geometry">
            <mxPoint x="49" y="27" as="offset" />
          </mxGeometry>
        </mxCell>
        <mxCell id="aTWuju5GETZAm3QBWsv6-23" value="Choosability &amp;nbsp;" style="text;whiteSpace=wrap;html=1;" parent="1" vertex="1">
          <mxGeometry x="-300" y="25" width="80" height="40" as="geometry" />
        </mxCell>
        <mxCell id="aTWuju5GETZAm3QBWsv6-24" value="Ownership &amp;nbsp;" style="text;whiteSpace=wrap;html=1;" parent="1" vertex="1">
          <mxGeometry x="-330" y="65" width="70" height="40" as="geometry" />
        </mxCell>
        <mxCell id="aTWuju5GETZAm3QBWsv6-25" value="" style="endArrow=classic;html=1;rounded=0;exitX=0;exitY=0;exitDx=0;exitDy=0;entryX=1;entryY=0.5;entryDx=0;entryDy=0;curved=1;" parent="1" source="aTWuju5GETZAm3QBWsv6-11" target="aTWuju5GETZAm3QBWsv6-23" edge="1">
          <mxGeometry width="50" height="50" relative="1" as="geometry">
            <mxPoint x="315" y="140" as="sourcePoint" />
            <mxPoint x="370" y="70" as="targetPoint" />
            <Array as="points">
              <mxPoint x="-90" y="100" />
            </Array>
          </mxGeometry>
        </mxCell>
        <mxCell id="aTWuju5GETZAm3QBWsv6-26" value="2" style="edgeLabel;html=1;align=center;verticalAlign=middle;resizable=0;points=[];labelBackgroundColor=none;" parent="aTWuju5GETZAm3QBWsv6-25" vertex="1" connectable="0">
          <mxGeometry x="-0.0429" y="-4" relative="1" as="geometry">
            <mxPoint x="126" y="-10" as="offset" />
          </mxGeometry>
        </mxCell>
        <mxCell id="aTWuju5GETZAm3QBWsv6-27" value="" style="endArrow=classic;html=1;rounded=0;entryX=1;entryY=0.5;entryDx=0;entryDy=0;exitX=0;exitY=0.25;exitDx=0;exitDy=0;curved=1;" parent="1" source="aTWuju5GETZAm3QBWsv6-11" target="aTWuju5GETZAm3QBWsv6-24" edge="1">
          <mxGeometry width="50" height="50" relative="1" as="geometry">
            <mxPoint x="400" y="190" as="sourcePoint" />
            <mxPoint x="380" y="80" as="targetPoint" />
            <Array as="points">
              <mxPoint x="-90" y="120" />
            </Array>
          </mxGeometry>
        </mxCell>
        <mxCell id="aTWuju5GETZAm3QBWsv6-28" value="2" style="edgeLabel;html=1;align=center;verticalAlign=middle;resizable=0;points=[];labelBackgroundColor=none;" parent="aTWuju5GETZAm3QBWsv6-27" vertex="1" connectable="0">
          <mxGeometry x="-0.0429" y="-4" relative="1" as="geometry">
            <mxPoint x="152" y="1" as="offset" />
          </mxGeometry>
        </mxCell>
        <mxCell id="aTWuju5GETZAm3QBWsv6-29" value="Availability &amp;nbsp;" style="text;whiteSpace=wrap;html=1;" parent="1" vertex="1">
          <mxGeometry x="-385" y="100" width="70" height="30" as="geometry" />
        </mxCell>
        <mxCell id="aTWuju5GETZAm3QBWsv6-30" value="" style="endArrow=classic;html=1;rounded=0;entryX=1;entryY=0.5;entryDx=0;entryDy=0;exitX=0;exitY=0.5;exitDx=0;exitDy=0;curved=1;" parent="1" source="aTWuju5GETZAm3QBWsv6-12" target="aTWuju5GETZAm3QBWsv6-29" edge="1">
          <mxGeometry width="50" height="50" relative="1" as="geometry">
            <mxPoint x="50" y="170" as="sourcePoint" />
            <mxPoint x="460" y="180" as="targetPoint" />
            <Array as="points">
              <mxPoint x="-150" y="200" />
            </Array>
          </mxGeometry>
        </mxCell>
        <mxCell id="aTWuju5GETZAm3QBWsv6-31" value="3" style="edgeLabel;html=1;align=center;verticalAlign=middle;resizable=0;points=[];labelBackgroundColor=none;" parent="aTWuju5GETZAm3QBWsv6-30" vertex="1" connectable="0">
          <mxGeometry x="-0.0429" y="-4" relative="1" as="geometry">
            <mxPoint x="154" y="-15" as="offset" />
          </mxGeometry>
        </mxCell>
        <mxCell id="aTWuju5GETZAm3QBWsv6-32" value="Secure identity transfer" style="text;whiteSpace=wrap;html=1;" parent="1" vertex="1">
          <mxGeometry x="455" y="315" width="90" height="40" as="geometry" />
        </mxCell>
        <mxCell id="aTWuju5GETZAm3QBWsv6-33" value="" style="endArrow=classic;html=1;rounded=0;entryX=0;entryY=0.25;entryDx=0;entryDy=0;exitX=1;exitY=0.75;exitDx=0;exitDy=0;curved=1;" parent="1" source="aTWuju5GETZAm3QBWsv6-15" target="aTWuju5GETZAm3QBWsv6-32" edge="1">
          <mxGeometry width="50" height="50" relative="1" as="geometry">
            <mxPoint x="395" y="315" as="sourcePoint" />
            <mxPoint x="495" y="295" as="targetPoint" />
            <Array as="points">
              <mxPoint x="375" y="355" />
            </Array>
          </mxGeometry>
        </mxCell>
        <mxCell id="aTWuju5GETZAm3QBWsv6-34" value="4" style="edgeLabel;html=1;align=center;verticalAlign=middle;resizable=0;points=[];labelBackgroundColor=none;" parent="aTWuju5GETZAm3QBWsv6-33" vertex="1" connectable="0">
          <mxGeometry x="-0.0429" y="-4" relative="1" as="geometry">
            <mxPoint x="-51" y="-20" as="offset" />
          </mxGeometry>
        </mxCell>
        <mxCell id="aTWuju5GETZAm3QBWsv6-35" value="Compliance" style="text;whiteSpace=wrap;html=1;" parent="1" vertex="1">
          <mxGeometry x="280" y="500" width="90" height="40" as="geometry" />
        </mxCell>
        <mxCell id="aTWuju5GETZAm3QBWsv6-36" value="" style="endArrow=classic;html=1;rounded=0;entryX=0.25;entryY=0;entryDx=0;entryDy=0;exitX=0.25;exitY=1;exitDx=0;exitDy=0;curved=1;" parent="1" source="aTWuju5GETZAm3QBWsv6-16" target="aTWuju5GETZAm3QBWsv6-35" edge="1">
          <mxGeometry width="50" height="50" relative="1" as="geometry">
            <mxPoint x="325" y="331" as="sourcePoint" />
            <mxPoint x="440" y="380" as="targetPoint" />
            <Array as="points">
              <mxPoint x="303" y="390" />
            </Array>
          </mxGeometry>
        </mxCell>
        <mxCell id="aTWuju5GETZAm3QBWsv6-37" value="5" style="edgeLabel;html=1;align=center;verticalAlign=middle;resizable=0;points=[];labelBackgroundColor=none;" parent="aTWuju5GETZAm3QBWsv6-36" vertex="1" connectable="0">
          <mxGeometry x="-0.0429" y="-4" relative="1" as="geometry">
            <mxPoint x="-87" y="-2" as="offset" />
          </mxGeometry>
        </mxCell>
        <mxCell id="aTWuju5GETZAm3QBWsv6-38" value="Participation" style="text;whiteSpace=wrap;html=1;" parent="1" vertex="1">
          <mxGeometry x="-290" y="255" width="70" height="30" as="geometry" />
        </mxCell>
        <mxCell id="aTWuju5GETZAm3QBWsv6-39" value="Security" style="text;whiteSpace=wrap;html=1;" parent="1" vertex="1">
          <mxGeometry x="-90" y="197.5" width="50" height="40" as="geometry" />
        </mxCell>
        <mxCell id="aTWuju5GETZAm3QBWsv6-40" value="Counterfait Prevention" style="text;whiteSpace=wrap;html=1;" parent="1" vertex="1">
          <mxGeometry x="380" y="90" width="130" height="20" as="geometry" />
        </mxCell>
        <mxCell id="aTWuju5GETZAm3QBWsv6-41" value="" style="endArrow=classic;html=1;rounded=0;entryX=1;entryY=0.25;entryDx=0;entryDy=0;exitX=0;exitY=0.25;exitDx=0;exitDy=0;curved=1;" parent="1" source="aTWuju5GETZAm3QBWsv6-18" target="aTWuju5GETZAm3QBWsv6-39" edge="1">
          <mxGeometry width="50" height="50" relative="1" as="geometry">
            <mxPoint x="100" y="280" as="sourcePoint" />
            <mxPoint x="10" y="340" as="targetPoint" />
            <Array as="points">
              <mxPoint x="60" y="250" />
            </Array>
          </mxGeometry>
        </mxCell>
        <mxCell id="aTWuju5GETZAm3QBWsv6-42" value="7" style="edgeLabel;html=1;align=center;verticalAlign=middle;resizable=0;points=[];labelBackgroundColor=none;" parent="aTWuju5GETZAm3QBWsv6-41" vertex="1" connectable="0">
          <mxGeometry x="-0.0429" y="-4" relative="1" as="geometry">
            <mxPoint x="60" y="-15" as="offset" />
          </mxGeometry>
        </mxCell>
        <mxCell id="aTWuju5GETZAm3QBWsv6-43" value="Secure Transactions" style="text;whiteSpace=wrap;html=1;" parent="1" vertex="1">
          <mxGeometry x="435" y="197.5" width="120" height="20" as="geometry" />
        </mxCell>
        <mxCell id="aTWuju5GETZAm3QBWsv6-44" value="" style="endArrow=classic;html=1;rounded=0;entryX=0;entryY=1;entryDx=0;entryDy=0;exitX=0.5;exitY=0;exitDx=0;exitDy=0;curved=1;" parent="1" source="aTWuju5GETZAm3QBWsv6-18" target="aTWuju5GETZAm3QBWsv6-40" edge="1">
          <mxGeometry width="50" height="50" relative="1" as="geometry">
            <mxPoint x="50" y="210" as="sourcePoint" />
            <mxPoint x="-90" y="210" as="targetPoint" />
            <Array as="points">
              <mxPoint x="340" y="200" />
            </Array>
          </mxGeometry>
        </mxCell>
        <mxCell id="aTWuju5GETZAm3QBWsv6-45" value="7" style="edgeLabel;html=1;align=center;verticalAlign=middle;resizable=0;points=[];labelBackgroundColor=none;" parent="aTWuju5GETZAm3QBWsv6-44" vertex="1" connectable="0">
          <mxGeometry x="-0.0429" y="-4" relative="1" as="geometry">
            <mxPoint x="-72" y="1" as="offset" />
          </mxGeometry>
        </mxCell>
        <mxCell id="aTWuju5GETZAm3QBWsv6-46" value="" style="endArrow=classic;html=1;rounded=0;entryX=0;entryY=0.75;entryDx=0;entryDy=0;exitX=1;exitY=0.25;exitDx=0;exitDy=0;curved=1;" parent="1" source="aTWuju5GETZAm3QBWsv6-18" target="aTWuju5GETZAm3QBWsv6-43" edge="1">
          <mxGeometry width="50" height="50" relative="1" as="geometry">
            <mxPoint x="60" y="220" as="sourcePoint" />
            <mxPoint x="-60" y="160" as="targetPoint" />
            <Array as="points">
              <mxPoint x="350" y="270" />
            </Array>
          </mxGeometry>
        </mxCell>
        <mxCell id="aTWuju5GETZAm3QBWsv6-47" value="7" style="edgeLabel;html=1;align=center;verticalAlign=middle;resizable=0;points=[];labelBackgroundColor=none;" parent="aTWuju5GETZAm3QBWsv6-46" vertex="1" connectable="0">
          <mxGeometry x="-0.0429" y="-4" relative="1" as="geometry">
            <mxPoint x="-89" y="-16" as="offset" />
          </mxGeometry>
        </mxCell>
        <mxCell id="aTWuju5GETZAm3QBWsv6-48" value="Disclosure Minimization" style="text;whiteSpace=wrap;html=1;" parent="1" vertex="1">
          <mxGeometry x="-220" y="120" width="140" height="20" as="geometry" />
        </mxCell>
        <mxCell id="aTWuju5GETZAm3QBWsv6-49" value="" style="endArrow=classic;html=1;rounded=0;exitX=0;exitY=0.25;exitDx=0;exitDy=0;entryX=1;entryY=0.75;entryDx=0;entryDy=0;curved=1;" parent="1" source="aTWuju5GETZAm3QBWsv6-19" target="aTWuju5GETZAm3QBWsv6-48" edge="1">
          <mxGeometry width="50" height="50" relative="1" as="geometry">
            <mxPoint x="73" y="200" as="sourcePoint" />
            <mxPoint x="-40" y="160" as="targetPoint" />
            <Array as="points">
              <mxPoint x="-10" y="150" />
            </Array>
          </mxGeometry>
        </mxCell>
        <mxCell id="aTWuju5GETZAm3QBWsv6-50" value="8" style="edgeLabel;html=1;align=center;verticalAlign=middle;resizable=0;points=[];labelBackgroundColor=none;" parent="aTWuju5GETZAm3QBWsv6-49" vertex="1" connectable="0">
          <mxGeometry x="-0.0429" y="-4" relative="1" as="geometry">
            <mxPoint x="47" y="14" as="offset" />
          </mxGeometry>
        </mxCell>
        <mxCell id="aTWuju5GETZAm3QBWsv6-51" value="Privacy" style="text;whiteSpace=wrap;html=1;" parent="1" vertex="1">
          <mxGeometry x="-50" y="105" width="50" height="20" as="geometry" />
        </mxCell>
        <mxCell id="aTWuju5GETZAm3QBWsv6-52" value="" style="endArrow=classic;html=1;rounded=0;entryX=1;entryY=0.75;entryDx=0;entryDy=0;exitX=0;exitY=0;exitDx=0;exitDy=0;curved=1;" parent="1" source="aTWuju5GETZAm3QBWsv6-19" target="aTWuju5GETZAm3QBWsv6-51" edge="1">
          <mxGeometry width="50" height="50" relative="1" as="geometry">
            <mxPoint x="175" y="130" as="sourcePoint" />
            <mxPoint x="233" y="-10" as="targetPoint" />
            <Array as="points">
              <mxPoint x="30" y="140" />
            </Array>
          </mxGeometry>
        </mxCell>
        <mxCell id="aTWuju5GETZAm3QBWsv6-53" value="8" style="edgeLabel;html=1;align=center;verticalAlign=middle;resizable=0;points=[];labelBackgroundColor=none;" parent="aTWuju5GETZAm3QBWsv6-52" vertex="1" connectable="0">
          <mxGeometry x="-0.0429" y="-4" relative="1" as="geometry">
            <mxPoint x="21" y="-6" as="offset" />
          </mxGeometry>
        </mxCell>
        <mxCell id="aTWuju5GETZAm3QBWsv6-54" value="Usability" style="text;whiteSpace=wrap;html=1;" parent="1" vertex="1">
          <mxGeometry x="-45" y="297.5" width="60" height="20" as="geometry" />
        </mxCell>
        <mxCell id="aTWuju5GETZAm3QBWsv6-55" value="Consistency" style="text;whiteSpace=wrap;html=1;" parent="1" vertex="1">
          <mxGeometry x="-220" y="327.5" width="70" height="20" as="geometry" />
        </mxCell>
        <mxCell id="aTWuju5GETZAm3QBWsv6-56" value="Recoverable" style="text;whiteSpace=wrap;html=1;" parent="1" vertex="1">
          <mxGeometry x="-380" y="280" width="80" height="30" as="geometry" />
        </mxCell>
        <mxCell id="aTWuju5GETZAm3QBWsv6-57" value="" style="endArrow=classic;html=1;rounded=0;entryX=1;entryY=0.75;entryDx=0;entryDy=0;exitX=0;exitY=1;exitDx=0;exitDy=0;curved=1;" parent="1" source="aTWuju5GETZAm3QBWsv6-54" target="aTWuju5GETZAm3QBWsv6-55" edge="1">
          <mxGeometry width="50" height="50" relative="1" as="geometry">
            <mxPoint x="325" y="331" as="sourcePoint" />
            <mxPoint x="440" y="380" as="targetPoint" />
            <Array as="points">
              <mxPoint x="-80" y="350" />
            </Array>
          </mxGeometry>
        </mxCell>
        <mxCell id="aTWuju5GETZAm3QBWsv6-58" value="9" style="edgeLabel;html=1;align=center;verticalAlign=middle;resizable=0;points=[];labelBackgroundColor=none;" parent="aTWuju5GETZAm3QBWsv6-57" vertex="1" connectable="0">
          <mxGeometry x="-0.0429" y="-4" relative="1" as="geometry">
            <mxPoint x="43" y="-10" as="offset" />
          </mxGeometry>
        </mxCell>
        <mxCell id="aTWuju5GETZAm3QBWsv6-59" value="" style="endArrow=classic;html=1;rounded=0;entryX=1;entryY=0.5;entryDx=0;entryDy=0;exitX=0;exitY=0.5;exitDx=0;exitDy=0;curved=1;" parent="1" source="aTWuju5GETZAm3QBWsv6-55" target="aTWuju5GETZAm3QBWsv6-56" edge="1">
          <mxGeometry width="50" height="50" relative="1" as="geometry">
            <mxPoint x="555" y="320" as="sourcePoint" />
            <mxPoint x="640" y="365" as="targetPoint" />
            <Array as="points">
              <mxPoint x="-280" y="330" />
            </Array>
          </mxGeometry>
        </mxCell>
        <mxCell id="aTWuju5GETZAm3QBWsv6-60" value="9" style="edgeLabel;html=1;align=center;verticalAlign=middle;resizable=0;points=[];labelBackgroundColor=none;" parent="aTWuju5GETZAm3QBWsv6-59" vertex="1" connectable="0">
          <mxGeometry x="-0.0429" y="-4" relative="1" as="geometry">
            <mxPoint x="43" y="-8" as="offset" />
          </mxGeometry>
        </mxCell>
        <mxCell id="aTWuju5GETZAm3QBWsv6-61" value="Decentralization" style="text;whiteSpace=wrap;html=1;" parent="1" vertex="1">
          <mxGeometry x="-130" y="240" width="100" height="17.5" as="geometry" />
        </mxCell>
        <mxCell id="aTWuju5GETZAm3QBWsv6-62" value="Autonomy" style="text;whiteSpace=wrap;html=1;" parent="1" vertex="1">
          <mxGeometry x="-340" y="150" width="60" height="20" as="geometry" />
        </mxCell>
        <mxCell id="aTWuju5GETZAm3QBWsv6-63" value="" style="endArrow=classic;html=1;rounded=0;entryX=1;entryY=0.5;entryDx=0;entryDy=0;exitX=0.25;exitY=0;exitDx=0;exitDy=0;jumpStyle=arc;curved=1;" parent="1" source="aTWuju5GETZAm3QBWsv6-61" target="aTWuju5GETZAm3QBWsv6-62" edge="1">
          <mxGeometry width="50" height="50" relative="1" as="geometry">
            <mxPoint x="100" y="280" as="sourcePoint" />
            <mxPoint x="10" y="340" as="targetPoint" />
            <Array as="points">
              <mxPoint x="-170" y="170" />
            </Array>
          </mxGeometry>
        </mxCell>
        <mxCell id="aTWuju5GETZAm3QBWsv6-64" value="10" style="edgeLabel;html=1;align=center;verticalAlign=middle;resizable=0;points=[];labelBackgroundColor=none;" parent="aTWuju5GETZAm3QBWsv6-63" vertex="1" connectable="0">
          <mxGeometry x="-0.0429" y="-4" relative="1" as="geometry">
            <mxPoint x="43" y="65" as="offset" />
          </mxGeometry>
        </mxCell>
        <mxCell id="aTWuju5GETZAm3QBWsv6-65" value="Identity Verification" style="text;whiteSpace=wrap;html=1;" parent="1" vertex="1">
          <mxGeometry x="-440" y="400" width="110" height="30" as="geometry" />
        </mxCell>
        <mxCell id="aTWuju5GETZAm3QBWsv6-66" value="Verifiability and Authenticity" style="text;whiteSpace=wrap;html=1;" parent="1" vertex="1">
          <mxGeometry x="-170" y="390" width="160" height="20" as="geometry" />
        </mxCell>
        <mxCell id="aTWuju5GETZAm3QBWsv6-67" value="Provability" style="text;whiteSpace=wrap;html=1;" parent="1" vertex="1">
          <mxGeometry x="-250" y="420" width="70" height="30" as="geometry" />
        </mxCell>
        <mxCell id="aTWuju5GETZAm3QBWsv6-68" value="Identity Assurance" style="text;whiteSpace=wrap;html=1;" parent="1" vertex="1">
          <mxGeometry x="-390" y="530" width="110" height="30" as="geometry" />
        </mxCell>
        <mxCell id="aTWuju5GETZAm3QBWsv6-69" value="" style="endArrow=classic;html=1;rounded=0;entryX=0.25;entryY=0;entryDx=0;entryDy=0;exitX=0;exitY=1;exitDx=0;exitDy=0;curved=1;" parent="1" source="aTWuju5GETZAm3QBWsv6-67" target="aTWuju5GETZAm3QBWsv6-68" edge="1">
          <mxGeometry width="50" height="50" relative="1" as="geometry">
            <mxPoint x="-300" y="300" as="sourcePoint" />
            <mxPoint x="-345" y="390" as="targetPoint" />
            <Array as="points">
              <mxPoint x="-280" y="510" />
            </Array>
          </mxGeometry>
        </mxCell>
        <mxCell id="aTWuju5GETZAm3QBWsv6-70" value="11" style="edgeLabel;html=1;align=center;verticalAlign=middle;resizable=0;points=[];labelBackgroundColor=none;" parent="aTWuju5GETZAm3QBWsv6-69" vertex="1" connectable="0">
          <mxGeometry x="-0.0429" y="-4" relative="1" as="geometry">
            <mxPoint x="26" y="-67" as="offset" />
          </mxGeometry>
        </mxCell>
        <mxCell id="aTWuju5GETZAm3QBWsv6-71" value="" style="endArrow=classic;html=1;rounded=0;entryX=0.25;entryY=1;entryDx=0;entryDy=0;exitX=0;exitY=0.5;exitDx=0;exitDy=0;curved=1;" parent="1" source="aTWuju5GETZAm3QBWsv6-68" target="aTWuju5GETZAm3QBWsv6-65" edge="1">
          <mxGeometry width="50" height="50" relative="1" as="geometry">
            <mxPoint x="-290" y="310" as="sourcePoint" />
            <mxPoint x="-335" y="400" as="targetPoint" />
            <Array as="points">
              <mxPoint x="-470" y="500" />
            </Array>
          </mxGeometry>
        </mxCell>
        <mxCell id="aTWuju5GETZAm3QBWsv6-72" value="11" style="edgeLabel;html=1;align=center;verticalAlign=middle;resizable=0;points=[];labelBackgroundColor=none;" parent="aTWuju5GETZAm3QBWsv6-71" vertex="1" connectable="0">
          <mxGeometry x="-0.0429" y="-4" relative="1" as="geometry">
            <mxPoint x="61" y="19" as="offset" />
          </mxGeometry>
        </mxCell>
        <mxCell id="aTWuju5GETZAm3QBWsv6-73" value="" style="endArrow=classic;html=1;rounded=0;exitX=1;exitY=0.5;exitDx=0;exitDy=0;entryX=0.5;entryY=1;entryDx=0;entryDy=0;curved=1;" parent="1" source="aTWuju5GETZAm3QBWsv6-67" target="aTWuju5GETZAm3QBWsv6-66" edge="1">
          <mxGeometry width="50" height="50" relative="1" as="geometry">
            <mxPoint x="-275" y="410" as="sourcePoint" />
            <mxPoint x="-300" y="330" as="targetPoint" />
            <Array as="points">
              <mxPoint x="-120" y="450" />
            </Array>
          </mxGeometry>
        </mxCell>
        <mxCell id="aTWuju5GETZAm3QBWsv6-74" value="11" style="edgeLabel;html=1;align=center;verticalAlign=middle;resizable=0;points=[];labelBackgroundColor=none;" parent="aTWuju5GETZAm3QBWsv6-73" vertex="1" connectable="0">
          <mxGeometry x="-0.0429" y="-4" relative="1" as="geometry">
            <mxPoint x="-51" y="-2" as="offset" />
          </mxGeometry>
        </mxCell>
        <mxCell id="aTWuju5GETZAm3QBWsv6-77" value="" style="ellipse;whiteSpace=wrap;html=1;aspect=fixed;fillColor=#ffe6cc;strokeColor=#d79b00;strokeWidth=2;" parent="1" vertex="1">
          <mxGeometry x="-130" y="-120" width="30" height="30" as="geometry" />
        </mxCell>
        <mxCell id="aTWuju5GETZAm3QBWsv6-78" value="&lt;font style=&quot;font-size: 20px;&quot;&gt;Sovrin&lt;/font&gt;" style="text;whiteSpace=wrap;html=1;" parent="1" vertex="1">
          <mxGeometry x="-80" y="-120" width="130" height="40" as="geometry" />
        </mxCell>
        <mxCell id="aTWuju5GETZAm3QBWsv6-79" value="" style="ellipse;whiteSpace=wrap;html=1;aspect=fixed;fillColor=#d5e8d4;strokeColor=#82b366;strokeWidth=2;" parent="1" vertex="1">
          <mxGeometry x="-130" y="-80" width="30" height="30" as="geometry" />
        </mxCell>
        <mxCell id="aTWuju5GETZAm3QBWsv6-80" value="&lt;font style=&quot;font-size: 20px;&quot;&gt;Ferdous et al.&lt;/font&gt;" style="text;whiteSpace=wrap;html=1;" parent="1" vertex="1">
          <mxGeometry x="-80" y="-80" width="130" height="40" as="geometry" />
        </mxCell>
        <mxCell id="aTWuju5GETZAm3QBWsv6-81" value="" style="ellipse;whiteSpace=wrap;html=1;aspect=fixed;fillColor=#fff2cc;strokeColor=#d6b656;strokeWidth=2;" parent="1" vertex="1">
          <mxGeometry x="80" y="-120" width="30" height="30" as="geometry" />
        </mxCell>
        <mxCell id="aTWuju5GETZAm3QBWsv6-82" value="&lt;font style=&quot;font-size: 20px;&quot;&gt;Andrieu et al.&lt;/font&gt;" style="text;whiteSpace=wrap;html=1;" parent="1" vertex="1">
          <mxGeometry x="130" y="-120" width="130" height="40" as="geometry" />
        </mxCell>
        <mxCell id="aTWuju5GETZAm3QBWsv6-83" value="" style="ellipse;whiteSpace=wrap;html=1;aspect=fixed;fillColor=#f8cecc;strokeColor=#b85450;strokeWidth=2;" parent="1" vertex="1">
          <mxGeometry x="80" y="-80" width="30" height="30" as="geometry" />
        </mxCell>
        <mxCell id="aTWuju5GETZAm3QBWsv6-84" value="&lt;font style=&quot;font-size: 20px;&quot;&gt;Stokkink and Pouwelse &lt;/font&gt;" style="text;whiteSpace=wrap;html=1;" parent="1" vertex="1">
          <mxGeometry x="130" y="-80" width="230" height="40" as="geometry" />
        </mxCell>
        <mxCell id="aTWuju5GETZAm3QBWsv6-85" value="" style="ellipse;whiteSpace=wrap;html=1;aspect=fixed;fillColor=#f5f5f5;strokeColor=#666666;fontColor=#333333;strokeWidth=2;" parent="1" vertex="1">
          <mxGeometry x="-340" y="-120" width="30" height="30" as="geometry" />
        </mxCell>
        <mxCell id="aTWuju5GETZAm3QBWsv6-86" value="&lt;font style=&quot;font-size: 20px;&quot;&gt;Allen&lt;/font&gt;" style="text;whiteSpace=wrap;html=1;" parent="1" vertex="1">
          <mxGeometry x="-290" y="-120" width="130" height="40" as="geometry" />
        </mxCell>
        <mxCell id="aTWuju5GETZAm3QBWsv6-87" value="" style="ellipse;whiteSpace=wrap;html=1;aspect=fixed;fillColor=#dae8fc;strokeColor=#6c8ebf;strokeWidth=2;" parent="1" vertex="1">
          <mxGeometry x="-340" y="-80" width="30" height="30" as="geometry" />
        </mxCell>
        <mxCell id="aTWuju5GETZAm3QBWsv6-88" value="&lt;font style=&quot;font-size: 20px;&quot;&gt;Toth and Kalman&lt;/font&gt;" style="text;whiteSpace=wrap;html=1;" parent="1" vertex="1">
          <mxGeometry x="-290" y="-80" width="160" height="40" as="geometry" />
        </mxCell>
      </root>
    </mxGraphModel>
  </diagram>
</mxfile>
